<?xml version="1.0" encoding="utf-8"?>
<svg version="1.1" xmlns:xlink="http://www.w3.org/1999/xlink" width="25px" height="40px" xmlns="http://www.w3.org/2000/svg">
  <g transform="matrix(1 0 0 1 -540 -442 )">
    <path d="M 24.7494989979961 35.3651745555793  C 24.9164996659986 35.639323195545  25 35.9545941315057  25 36.310987363461  C 25 36.6673805954165  24.9164996659986 36.9826515313771  24.7494989979961 37.2568001713428  L 23.4969939879759 39.3129149710858  C 23.3299933199734 39.5870636110515  23.1379425517702 39.7241379310344  22.9208416833668 39.7241379310344  C 22.7037408149633 39.7241379310344  22.5116900467602 39.5870636110515  22.3446893787575 39.3129149710858  L 12.5 23.151852645106  L 2.65531062124251 39.3129149710858  C 2.48830995323976 39.5870636110515  2.29625918503666 39.7241379310344  2.0791583166332 39.7241379310344  C 1.86205744822985 39.7241379310344  1.67000668002663 39.5870636110515  1.50300601202412 39.3129149710858  L 0.250501002003944 37.2568001713428  C 0.0835003340014282 36.9826515313771  0 36.6673805954165  0 36.310987363461  C 0 35.9545941315057  0.0835003340014282 35.639323195545  0.250501002003944 35.3651745555793  L 11.9238476953908 16.2021846219748  C 12.0908483633934 15.9280359820091  12.2828991315965 15.7909616620261  12.5 15.7909616620261  C 12.7171008684035 15.7909616620261  12.9091516366066 15.9280359820091  13.0761523046092 16.2021846219748  L 24.7494989979961 35.3651745555793  Z M 24.7494989979961 19.5742128935533  C 24.9164996659986 19.8483615335188  25 20.1636324694795  25 20.520025701435  C 25 20.8764189333904  24.9164996659986 21.191689869351  24.7494989979961 21.4658385093167  L 23.4969939879759 23.5219533090597  C 23.3299933199734 23.7961019490253  23.1379425517702 23.9331762690083  22.9208416833668 23.9331762690083  C 22.7037408149633 23.9331762690083  22.5116900467602 23.7961019490253  22.3446893787575 23.5219533090597  L 12.5 7.3608909830798  L 2.65531062124251 23.5219533090597  C 2.48830995323976 23.7961019490253  2.29625918503666 23.9331762690083  2.0791583166332 23.9331762690083  C 1.86205744822985 23.9331762690083  1.67000668002663 23.7961019490253  1.50300601202412 23.5219533090597  L 0.250501002003944 21.4658385093167  C 0.0835003340014282 21.191689869351  0 20.8764189333904  0 20.520025701435  C 0 20.1636324694795  0.0835003340014282 19.8483615335188  0.250501002003944 19.5742128935533  L 11.9238476953908 0.411222959948589  C 12.0908483633934 0.137074319982901  12.2828991315965 0  12.5 0  C 12.7171008684035 0  12.9091516366066 0.137074319982901  13.0761523046092 0.411222959948589  L 24.7494989979961 19.5742128935533  Z " fill-rule="nonzero" fill="#333333" stroke="none" transform="matrix(1 0 0 1 540 442 )" />
  </g>
</svg>