<?xml version="1.0" encoding="utf-8"?>
<svg version="1.1" xmlns:xlink="http://www.w3.org/1999/xlink" width="25px" height="40px" xmlns="http://www.w3.org/2000/svg">
  <g transform="matrix(1 0 0 1 -540 -688 )">
    <path d="M 24.7494989979961 18.2582994217178  C 24.9164996659986 18.5324480616835  25 18.8477189976439  25 19.2041122295994  C 25 19.5605054615548  24.9164996659986 19.8757763975156  24.7494989979961 20.1499250374811  L 13.0761523046092 39.3129149710858  C 12.9091516366066 39.5870636110515  12.7171008684035 39.7241379310344  12.5 39.7241379310344  C 12.2828991315965 39.7241379310344  12.0908483633934 39.5870636110515  11.9238476953908 39.3129149710858  L 0.250501002003944 20.1499250374811  C 0.0835003340014282 19.8757763975156  0 19.5605054615548  0 19.2041122295994  C 0 18.8477189976439  0.0835003340014282 18.5324480616835  0.250501002003944 18.2582994217178  L 1.50300601202412 16.2021846219748  C 1.67000668002663 15.9280359820091  1.86205744822985 15.7909616620261  2.0791583166332 15.7909616620261  C 2.29625918503666 15.7909616620261  2.48830995323976 15.9280359820091  2.65531062124251 16.2021846219748  L 12.5 32.3632469479546  L 22.3446893787575 16.2021846219748  C 22.5116900467602 15.9280359820091  22.7037408149633 15.7909616620261  22.9208416833668 15.7909616620261  C 23.1379425517702 15.7909616620261  23.3299933199734 15.9280359820091  23.4969939879759 16.2021846219748  L 24.7494989979961 18.2582994217178  Z M 24.7494989979961 2.46733775969153  C 24.9164996659986 2.74148639965722  25 3.05675733561782  25 3.41315056757333  C 25 3.76954379952872  24.9164996659986 4.08481473548943  24.7494989979961 4.35896337545512  L 13.0761523046092 23.5219533090597  C 12.9091516366066 23.7961019490253  12.7171008684035 23.9331762690083  12.5 23.9331762690083  C 12.2828991315965 23.9331762690083  12.0908483633934 23.7961019490253  11.9238476953908 23.5219533090597  L 0.250501002003944 4.35896337545512  C 0.0835003340014282 4.08481473548943  0 3.76954379952872  0 3.41315056757333  C 0 3.05675733561782  0.0835003340014282 2.74148639965722  0.250501002003944 2.46733775969153  L 1.50300601202412 0.411222959948645  C 1.67000668002663 0.137074319982958  1.86205744822985 0  2.0791583166332 0  C 2.29625918503666 0  2.48830995323976 0.137074319982958  2.65531062124251 0.411222959948645  L 12.5 16.5722852859285  L 22.3446893787575 0.411222959948645  C 22.5116900467602 0.137074319982958  22.7037408149633 0  22.9208416833668 0  C 23.1379425517702 0  23.3299933199734 0.137074319982958  23.4969939879759 0.411222959948645  L 24.7494989979961 2.46733775969153  Z " fill-rule="nonzero" fill="#333333" stroke="none" transform="matrix(1 0 0 1 540 688 )" />
  </g>
</svg>